<svg width="84" height="84" viewBox="0 0 84 84" fill="none" xmlns="http://www.w3.org/2000/svg">
<path d="M41.9997 0.333252C19.083 0.333252 0.333008 19.0833 0.333008 41.9999C0.333008 64.9166 19.083 83.6666 41.9997 83.6666C64.9163 83.6666 83.6663 64.9166 83.6663 41.9999C83.6663 19.0833 64.9163 0.333252 41.9997 0.333252ZM8.66634 41.9999C8.66634 23.6666 23.6663 8.66658 41.9997 8.66658C49.4997 8.66658 56.583 11.1666 62.4163 15.7499L15.7497 62.4166C11.1663 56.5832 8.66634 49.4999 8.66634 41.9999ZM41.9997 75.3333C34.4997 75.3333 27.4163 72.8332 21.583 68.2499L68.2497 21.5833C72.833 27.4166 75.333 34.4999 75.333 41.9999C75.333 60.3333 60.333 75.3333 41.9997 75.3333Z" fill="#585858"/>
</svg>
