<svg width="19" height="20" viewBox="0 0 19 20" fill="none" xmlns="http://www.w3.org/2000/svg">
<path d="M13.5 9H5.5C4.95 9 4.5 9.45 4.5 10C4.5 10.55 4.95 11 5.5 11H13.5C14.05 11 14.5 10.55 14.5 10C14.5 9.45 14.05 9 13.5 9ZM16.5 2H15.5V1C15.5 0.45 15.05 0 14.5 0C13.95 0 13.5 0.45 13.5 1V2H5.5V1C5.5 0.45 5.05 0 4.5 0C3.95 0 3.5 0.45 3.5 1V2H2.5C1.39 2 0.5 2.9 0.5 4V18C0.5 19.1 1.39 20 2.5 20H16.5C17.6 20 18.5 19.1 18.5 18V4C18.5 2.9 17.6 2 16.5 2ZM15.5 18H3.5C2.95 18 2.5 17.55 2.5 17V7H16.5V17C16.5 17.55 16.05 18 15.5 18ZM10.5 13H5.5C4.95 13 4.5 13.45 4.5 14C4.5 14.55 4.95 15 5.5 15H10.5C11.05 15 11.5 14.55 11.5 14C11.5 13.45 11.05 13 10.5 13Z" fill="#5E9EFE"/>
</svg>
