<svg width="24" height="24" viewBox="0 0 24 24" fill="none" xmlns="http://www.w3.org/2000/svg">
<path d="M21.1431 12.5715H17.7146M7.42885 4.57153C7.73196 4.57153 8.02265 4.69194 8.23697 4.90627C8.4513 5.1206 8.57171 5.41129 8.57171 5.71439V8.0001C8.57171 8.30321 8.4513 8.5939 8.23697 8.80823C8.02265 9.02255 7.73196 9.14296 7.42885 9.14296C7.12575 9.14296 6.83506 9.02255 6.62073 8.80823C6.4064 8.5939 6.28599 8.30321 6.28599 8.0001V5.71439C6.28599 5.41129 6.4064 5.1206 6.62073 4.90627C6.83506 4.69194 7.12575 4.57153 7.42885 4.57153V4.57153ZM21.1431 6.85725H8.57171H21.1431ZM6.28599 6.85725H2.85742H6.28599ZM7.42885 16.0001C7.73196 16.0001 8.02265 16.1205 8.23697 16.3348C8.4513 16.5492 8.57171 16.8399 8.57171 17.143V19.4287C8.57171 19.7318 8.4513 20.0225 8.23697 20.2368C8.02265 20.4511 7.73196 20.5715 7.42885 20.5715C7.12575 20.5715 6.83506 20.4511 6.62073 20.2368C6.4064 20.0225 6.28599 19.7318 6.28599 19.4287V17.143C6.28599 16.8399 6.4064 16.5492 6.62073 16.3348C6.83506 16.1205 7.12575 16.0001 7.42885 16.0001ZM21.1431 18.2858H8.57171H21.1431ZM6.28599 18.2858H2.85742H6.28599ZM16.5717 10.2858C16.8748 10.2858 17.1655 10.4062 17.3798 10.6206C17.5942 10.8349 17.7146 11.1256 17.7146 11.4287V13.7144C17.7146 14.0175 17.5942 14.3082 17.3798 14.5225C17.1655 14.7368 16.8748 14.8572 16.5717 14.8572C16.2686 14.8572 15.9779 14.7368 15.7636 14.5225C15.5493 14.3082 15.4289 14.0175 15.4289 13.7144V11.4287C15.4289 11.1256 15.5493 10.8349 15.7636 10.6206C15.9779 10.4062 16.2686 10.2858 16.5717 10.2858V10.2858ZM15.4289 12.5715H2.85742H15.4289Z" stroke="#303030" stroke-width="1.5" stroke-linecap="round" stroke-linejoin="round"/>
<rect x="7" y="5" width="1" height="4" fill="#303030"/>
<rect x="16" y="11" width="1" height="4" fill="#303030"/>
<rect x="7" y="16" width="1" height="4" fill="#303030"/>
</svg>
