<svg width="30" height="30" viewBox="0 0 30 30" fill="none" xmlns="http://www.w3.org/2000/svg">
<rect width="30" height="30" rx="15" fill="#0D6EFD"/>
<path d="M10.2592 22V20.5682L14.6889 15.9787C15.1619 15.4801 15.5518 15.0433 15.8587 14.6683C16.1697 14.2891 16.402 13.929 16.5554 13.5881C16.7088 13.2472 16.7855 12.8849 16.7855 12.5014C16.7855 12.0668 16.6832 11.6918 16.4787 11.3764C16.2741 11.0568 15.995 10.8118 15.6413 10.6413C15.2876 10.4666 14.8892 10.3793 14.446 10.3793C13.9773 10.3793 13.5682 10.4751 13.2188 10.6669C12.8693 10.8587 12.6009 11.1293 12.4134 11.4787C12.2259 11.8281 12.1321 12.2372 12.1321 12.706H10.2464C10.2464 11.9091 10.4297 11.2124 10.7962 10.6158C11.1626 10.0192 11.6655 9.55682 12.3047 9.22869C12.9439 8.89631 13.6705 8.73011 14.4844 8.73011C15.3068 8.73011 16.0313 8.89418 16.6577 9.2223C17.2884 9.54616 17.7805 9.98935 18.1342 10.5518C18.4879 11.1101 18.6648 11.7408 18.6648 12.4439C18.6648 12.9297 18.5732 13.4048 18.3899 13.8693C18.2109 14.3338 17.8977 14.8516 17.4503 15.4226C17.0028 15.9893 16.3807 16.6776 15.5838 17.4872L12.9822 20.2102V20.3061H18.8757V22H10.2592Z" fill="white"/>
</svg>
