<svg width="21" height="20" viewBox="0 0 21 20" fill="none" xmlns="http://www.w3.org/2000/svg">
<path d="M17.9301 10.98C17.9701 10.66 18.0001 10.34 18.0001 10C18.0001 9.66 17.9701 9.34 17.9301 9.02L20.0401 7.37C20.2301 7.22 20.2801 6.95 20.1601 6.73L18.1601 3.27C18.0401 3.05 17.7701 2.97 17.5501 3.05L15.0601 4.05C14.5401 3.65 13.9801 3.32 13.3701 3.07L12.9901 0.42C12.9601 0.18 12.7501 0 12.5001 0H8.50008C8.25008 0 8.04008 0.18 8.01008 0.42L7.63008 3.07C7.02008 3.32 6.46008 3.66 5.94008 4.05L3.45008 3.05C3.22008 2.96 2.96008 3.05 2.84008 3.27L0.840084 6.73C0.710084 6.95 0.770084 7.22 0.960084 7.37L3.07008 9.02C3.03008 9.34 3.00008 9.67 3.00008 10C3.00008 10.33 3.03008 10.66 3.07008 10.98L0.960084 12.63C0.770084 12.78 0.720084 13.05 0.840084 13.27L2.84008 16.73C2.96008 16.95 3.23008 17.03 3.45008 16.95L5.94008 15.95C6.46008 16.35 7.02008 16.68 7.63008 16.93L8.01008 19.58C8.04008 19.82 8.25008 20 8.50008 20H12.5001C12.7501 20 12.9601 19.82 12.9901 19.58L13.3701 16.93C13.9801 16.68 14.5401 16.34 15.0601 15.95L17.5501 16.95C17.7801 17.04 18.0401 16.95 18.1601 16.73L20.1601 13.27C20.2801 13.05 20.2301 12.78 20.0401 12.63L17.9301 10.98ZM10.5001 13.5C8.57008 13.5 7.00008 11.93 7.00008 10C7.00008 8.07 8.57008 6.5 10.5001 6.5C12.4301 6.5 14.0001 8.07 14.0001 10C14.0001 11.93 12.4301 13.5 10.5001 13.5Z" fill="#808080"/>
</svg>
