<svg width="21" height="21" viewBox="0 0 21 21" fill="none" xmlns="http://www.w3.org/2000/svg">
<path d="M14.74 6.75023C13.57 5.58023 12.04 4.99023 10.5 4.99023V10.9902L6.26 15.2302C8.6 17.5702 12.4 17.5702 14.75 15.2302C17.09 12.8902 17.09 9.09023 14.74 6.75023ZM10.5 0.990234C4.98 0.990234 0.5 5.47023 0.5 10.9902C0.5 16.5102 4.98 20.9902 10.5 20.9902C16.02 20.9902 20.5 16.5102 20.5 10.9902C20.5 5.47023 16.02 0.990234 10.5 0.990234ZM10.5 18.9902C6.08 18.9902 2.5 15.4102 2.5 10.9902C2.5 6.57023 6.08 2.99023 10.5 2.99023C14.92 2.99023 18.5 6.57023 18.5 10.9902C18.5 15.4102 14.92 18.9902 10.5 18.9902Z" fill="#FF5353"/>
</svg>
