<svg width="25" height="20" viewBox="0 0 25 20" fill="none" xmlns="http://www.w3.org/2000/svg">
<path d="M8.30006 13.75C8.21044 13.75 8.12081 13.7637 8.03531 13.7926C7.54931 13.957 7.03819 14.0625 6.50006 14.0625C5.96194 14.0625 5.45081 13.957 4.96444 13.7926C4.87894 13.7637 4.78969 13.75 4.70006 13.75C2.37281 13.75 0.487686 15.7219 0.500061 18.1492C0.505311 19.175 1.31494 20 2.30006 20H10.7001C11.6852 20 12.4948 19.175 12.5001 18.1492C12.5124 15.7219 10.6273 13.75 8.30006 13.75ZM6.50006 12.5C8.48831 12.5 10.1001 10.8211 10.1001 8.75C10.1001 6.67891 8.48831 5 6.50006 5C4.51181 5 2.90006 6.67891 2.90006 8.75C2.90006 10.8211 4.51181 12.5 6.50006 12.5ZM22.7001 0H8.30006C7.30744 0 6.50006 0.869141 6.50006 1.93711V3.75C7.37831 3.75 8.19131 4.01484 8.90006 4.44531V2.5H22.1001V13.75H19.7001V11.25H14.9001V13.75H12.0411C12.7573 14.402 13.2831 15.2629 13.5294 16.25H22.7001C23.6927 16.25 24.5001 15.3809 24.5001 14.3129V1.93711C24.5001 0.869141 23.6927 0 22.7001 0Z" fill="#808080"/>
</svg>
